<mxfile host="app.diagrams.net" modified="2023-10-15T19:02:36.681Z" agent="Mozilla/5.0 (Windows NT 10.0; Win64; x64) AppleWebKit/537.36 (KHTML, like Gecko) Chrome/118.0.0.0 Safari/537.36" etag="L5y01p91SjO5XGV1qyNC" version="21.7.5" type="device">
  <diagram id="R2lEEEUBdFMjLlhIrx00" name="Page-1">
    <mxGraphModel dx="1434" dy="758" grid="1" gridSize="10" guides="1" tooltips="1" connect="1" arrows="1" fold="1" page="1" pageScale="1" pageWidth="850" pageHeight="1100" math="0" shadow="0" extFonts="Permanent Marker^https://fonts.googleapis.com/css?family=Permanent+Marker">
      <root>
        <mxCell id="0" />
        <mxCell id="1" parent="0" />
        <mxCell id="C-vyLk0tnHw3VtMMgP7b-2" value="Student" style="shape=table;startSize=30;container=1;collapsible=1;childLayout=tableLayout;fixedRows=1;rowLines=0;fontStyle=1;align=center;resizeLast=1;labelBackgroundColor=none;" parent="1" vertex="1">
          <mxGeometry x="175" y="510" width="170" height="100" as="geometry">
            <mxRectangle x="410" y="100" width="80" height="30" as="alternateBounds" />
          </mxGeometry>
        </mxCell>
        <mxCell id="C-vyLk0tnHw3VtMMgP7b-6" value="" style="shape=partialRectangle;collapsible=0;dropTarget=0;pointerEvents=0;fillColor=none;points=[[0,0.5],[1,0.5]];portConstraint=eastwest;top=0;left=0;right=0;bottom=0;labelBackgroundColor=none;" parent="C-vyLk0tnHw3VtMMgP7b-2" vertex="1">
          <mxGeometry y="30" width="170" height="30" as="geometry" />
        </mxCell>
        <mxCell id="C-vyLk0tnHw3VtMMgP7b-8" value="StudentId" style="shape=partialRectangle;overflow=hidden;connectable=0;fillColor=none;top=0;left=0;bottom=0;right=0;align=left;spacingLeft=6;labelBackgroundColor=none;" parent="C-vyLk0tnHw3VtMMgP7b-6" vertex="1">
          <mxGeometry width="90" height="30" as="geometry">
            <mxRectangle width="90" height="30" as="alternateBounds" />
          </mxGeometry>
        </mxCell>
        <mxCell id="cqDrvo92ieutZ3kiGdi4-10" value="isu_id" style="shape=partialRectangle;overflow=hidden;connectable=0;fillColor=none;top=0;left=0;bottom=0;right=0;align=left;spacingLeft=6;labelBackgroundColor=none;" parent="C-vyLk0tnHw3VtMMgP7b-6" vertex="1">
          <mxGeometry x="90" width="45" height="30" as="geometry">
            <mxRectangle width="45" height="30" as="alternateBounds" />
          </mxGeometry>
        </mxCell>
        <mxCell id="cqDrvo92ieutZ3kiGdi4-6" value="PK " style="shape=partialRectangle;overflow=hidden;connectable=0;fillColor=none;top=0;left=0;bottom=0;right=0;align=left;spacingLeft=6;labelBackgroundColor=none;" parent="C-vyLk0tnHw3VtMMgP7b-6" vertex="1">
          <mxGeometry x="135" width="35" height="30" as="geometry">
            <mxRectangle width="35" height="30" as="alternateBounds" />
          </mxGeometry>
        </mxCell>
        <mxCell id="C-vyLk0tnHw3VtMMgP7b-9" value="" style="shape=partialRectangle;collapsible=0;dropTarget=0;pointerEvents=0;fillColor=none;points=[[0,0.5],[1,0.5]];portConstraint=eastwest;top=0;left=0;right=0;bottom=0;labelBackgroundColor=none;" parent="C-vyLk0tnHw3VtMMgP7b-2" vertex="1">
          <mxGeometry y="60" width="170" height="30" as="geometry" />
        </mxCell>
        <mxCell id="C-vyLk0tnHw3VtMMgP7b-11" value="StudentName" style="shape=partialRectangle;overflow=hidden;connectable=0;fillColor=none;top=0;left=0;bottom=0;right=0;align=left;spacingLeft=6;labelBackgroundColor=none;" parent="C-vyLk0tnHw3VtMMgP7b-9" vertex="1">
          <mxGeometry width="90" height="30" as="geometry">
            <mxRectangle width="90" height="30" as="alternateBounds" />
          </mxGeometry>
        </mxCell>
        <mxCell id="cqDrvo92ieutZ3kiGdi4-11" value="str" style="shape=partialRectangle;overflow=hidden;connectable=0;fillColor=none;top=0;left=0;bottom=0;right=0;align=left;spacingLeft=6;labelBackgroundColor=none;" parent="C-vyLk0tnHw3VtMMgP7b-9" vertex="1">
          <mxGeometry x="90" width="45" height="30" as="geometry">
            <mxRectangle width="45" height="30" as="alternateBounds" />
          </mxGeometry>
        </mxCell>
        <mxCell id="cqDrvo92ieutZ3kiGdi4-7" value="" style="shape=partialRectangle;overflow=hidden;connectable=0;fillColor=none;top=0;left=0;bottom=0;right=0;align=left;spacingLeft=6;labelBackgroundColor=none;" parent="C-vyLk0tnHw3VtMMgP7b-9" vertex="1">
          <mxGeometry x="135" width="35" height="30" as="geometry">
            <mxRectangle width="35" height="30" as="alternateBounds" />
          </mxGeometry>
        </mxCell>
        <mxCell id="cqDrvo92ieutZ3kiGdi4-15" value="Mark" style="shape=table;startSize=30;container=1;collapsible=1;childLayout=tableLayout;fixedRows=1;rowLines=0;fontStyle=1;align=center;resizeLast=1;labelBackgroundColor=none;strokeWidth=4;opacity=50;" parent="1" vertex="1">
          <mxGeometry x="150" y="330" width="220" height="70" as="geometry">
            <mxRectangle x="450" y="120" width="80" height="30" as="alternateBounds" />
          </mxGeometry>
        </mxCell>
        <mxCell id="by3PcvWIkUukrP1Bgjx7-13" style="shape=partialRectangle;collapsible=0;dropTarget=0;pointerEvents=0;fillColor=none;points=[[0,0.5],[1,0.5]];portConstraint=eastwest;top=0;left=0;right=0;bottom=0;labelBackgroundColor=none;" parent="cqDrvo92ieutZ3kiGdi4-15" vertex="1">
          <mxGeometry y="30" width="220" height="30" as="geometry" />
        </mxCell>
        <mxCell id="by3PcvWIkUukrP1Bgjx7-14" value="Mark" style="shape=partialRectangle;overflow=hidden;connectable=0;fillColor=none;top=0;left=0;bottom=0;right=0;align=left;spacingLeft=6;labelBackgroundColor=none;" parent="by3PcvWIkUukrP1Bgjx7-13" vertex="1">
          <mxGeometry width="110" height="30" as="geometry">
            <mxRectangle width="110" height="30" as="alternateBounds" />
          </mxGeometry>
        </mxCell>
        <mxCell id="by3PcvWIkUukrP1Bgjx7-15" value="mark" style="shape=partialRectangle;overflow=hidden;connectable=0;fillColor=none;top=0;left=0;bottom=0;right=0;align=left;spacingLeft=6;labelBackgroundColor=none;" parent="by3PcvWIkUukrP1Bgjx7-13" vertex="1">
          <mxGeometry x="110" width="60" height="30" as="geometry">
            <mxRectangle width="60" height="30" as="alternateBounds" />
          </mxGeometry>
        </mxCell>
        <mxCell id="by3PcvWIkUukrP1Bgjx7-16" value="" style="shape=partialRectangle;overflow=hidden;connectable=0;fillColor=none;top=0;left=0;bottom=0;right=0;align=left;spacingLeft=6;labelBackgroundColor=none;" parent="by3PcvWIkUukrP1Bgjx7-13" vertex="1">
          <mxGeometry x="170" width="50" height="30" as="geometry">
            <mxRectangle width="50" height="30" as="alternateBounds" />
          </mxGeometry>
        </mxCell>
        <mxCell id="cqDrvo92ieutZ3kiGdi4-50" value="GroupUniversity" style="shape=table;startSize=30;container=1;collapsible=1;childLayout=tableLayout;fixedRows=1;rowLines=0;fontStyle=1;align=center;resizeLast=1;labelBackgroundColor=none;swimlaneLine=1;" parent="1" vertex="1">
          <mxGeometry x="480" y="515" width="220" height="100" as="geometry">
            <mxRectangle x="450" y="120" width="80" height="30" as="alternateBounds" />
          </mxGeometry>
        </mxCell>
        <mxCell id="cqDrvo92ieutZ3kiGdi4-51" value="" style="shape=partialRectangle;collapsible=0;dropTarget=0;pointerEvents=0;fillColor=none;points=[[0,0.5],[1,0.5]];portConstraint=eastwest;top=0;left=0;right=0;bottom=0;labelBackgroundColor=none;" parent="cqDrvo92ieutZ3kiGdi4-50" vertex="1">
          <mxGeometry y="30" width="220" height="30" as="geometry" />
        </mxCell>
        <mxCell id="cqDrvo92ieutZ3kiGdi4-52" value="GroupId" style="shape=partialRectangle;overflow=hidden;connectable=0;fillColor=none;top=0;left=0;bottom=0;right=0;align=left;spacingLeft=6;labelBackgroundColor=none;" parent="cqDrvo92ieutZ3kiGdi4-51" vertex="1">
          <mxGeometry width="120.00000000000023" height="30" as="geometry">
            <mxRectangle width="120.00000000000023" height="30" as="alternateBounds" />
          </mxGeometry>
        </mxCell>
        <mxCell id="cqDrvo92ieutZ3kiGdi4-53" value="id" style="shape=partialRectangle;overflow=hidden;connectable=0;fillColor=none;top=0;left=0;bottom=0;right=0;align=left;spacingLeft=6;labelBackgroundColor=none;" parent="cqDrvo92ieutZ3kiGdi4-51" vertex="1">
          <mxGeometry x="120.00000000000023" width="49.99999999999977" height="30" as="geometry">
            <mxRectangle width="49.99999999999977" height="30" as="alternateBounds" />
          </mxGeometry>
        </mxCell>
        <mxCell id="cqDrvo92ieutZ3kiGdi4-54" value="PK " style="shape=partialRectangle;overflow=hidden;connectable=0;fillColor=none;top=0;left=0;bottom=0;right=0;align=left;spacingLeft=6;labelBackgroundColor=none;" parent="cqDrvo92ieutZ3kiGdi4-51" vertex="1">
          <mxGeometry x="170" width="50" height="30" as="geometry">
            <mxRectangle width="50" height="30" as="alternateBounds" />
          </mxGeometry>
        </mxCell>
        <mxCell id="cqDrvo92ieutZ3kiGdi4-55" value="" style="shape=partialRectangle;collapsible=0;dropTarget=0;pointerEvents=0;fillColor=none;points=[[0,0.5],[1,0.5]];portConstraint=eastwest;top=0;left=0;right=0;bottom=0;labelBackgroundColor=none;" parent="cqDrvo92ieutZ3kiGdi4-50" vertex="1">
          <mxGeometry y="60" width="220" height="30" as="geometry" />
        </mxCell>
        <mxCell id="cqDrvo92ieutZ3kiGdi4-56" value="GroupName" style="shape=partialRectangle;overflow=hidden;connectable=0;fillColor=none;top=0;left=0;bottom=0;right=0;align=left;spacingLeft=6;labelBackgroundColor=none;" parent="cqDrvo92ieutZ3kiGdi4-55" vertex="1">
          <mxGeometry width="120.00000000000023" height="30" as="geometry">
            <mxRectangle width="120.00000000000023" height="30" as="alternateBounds" />
          </mxGeometry>
        </mxCell>
        <mxCell id="cqDrvo92ieutZ3kiGdi4-57" value="str" style="shape=partialRectangle;overflow=hidden;connectable=0;fillColor=none;top=0;left=0;bottom=0;right=0;align=left;spacingLeft=6;labelBackgroundColor=none;" parent="cqDrvo92ieutZ3kiGdi4-55" vertex="1">
          <mxGeometry x="120.00000000000023" width="49.99999999999977" height="30" as="geometry">
            <mxRectangle width="49.99999999999977" height="30" as="alternateBounds" />
          </mxGeometry>
        </mxCell>
        <mxCell id="cqDrvo92ieutZ3kiGdi4-58" value="K1" style="shape=partialRectangle;overflow=hidden;connectable=0;fillColor=none;top=0;left=0;bottom=0;right=0;align=left;spacingLeft=6;labelBackgroundColor=none;" parent="cqDrvo92ieutZ3kiGdi4-55" vertex="1">
          <mxGeometry x="170" width="50" height="30" as="geometry">
            <mxRectangle width="50" height="30" as="alternateBounds" />
          </mxGeometry>
        </mxCell>
        <mxCell id="cqDrvo92ieutZ3kiGdi4-63" value="Course" style="shape=table;startSize=30;container=1;collapsible=1;childLayout=tableLayout;fixedRows=1;rowLines=0;fontStyle=1;align=center;resizeLast=1;labelBackgroundColor=none;strokeWidth=1;shadow=0;rounded=0;swimlaneLine=1;strokeColor=default;gradientColor=none;fillColor=default;absoluteArcSize=0;noLabel=0;portConstraintRotation=0;enumerate=0;treeFolding=0;treeMoving=0;autosize=0;" parent="1" vertex="1">
          <mxGeometry x="150" y="125" width="220" height="100" as="geometry">
            <mxRectangle x="450" y="120" width="80" height="30" as="alternateBounds" />
          </mxGeometry>
        </mxCell>
        <mxCell id="cqDrvo92ieutZ3kiGdi4-68" value="" style="shape=partialRectangle;collapsible=0;dropTarget=0;pointerEvents=0;fillColor=none;points=[[0,0.5],[1,0.5]];portConstraint=eastwest;top=0;left=0;right=0;bottom=0;labelBackgroundColor=none;" parent="cqDrvo92ieutZ3kiGdi4-63" vertex="1">
          <mxGeometry y="30" width="220" height="30" as="geometry" />
        </mxCell>
        <mxCell id="cqDrvo92ieutZ3kiGdi4-69" value="CourseId" style="shape=partialRectangle;overflow=hidden;connectable=0;fillColor=none;top=0;left=0;bottom=0;right=0;align=left;spacingLeft=6;labelBackgroundColor=none;" parent="cqDrvo92ieutZ3kiGdi4-68" vertex="1">
          <mxGeometry width="85" height="30" as="geometry">
            <mxRectangle width="85" height="30" as="alternateBounds" />
          </mxGeometry>
        </mxCell>
        <mxCell id="cqDrvo92ieutZ3kiGdi4-70" value="id" style="shape=partialRectangle;overflow=hidden;connectable=0;fillColor=none;top=0;left=0;bottom=0;right=0;align=left;spacingLeft=6;labelBackgroundColor=none;" parent="cqDrvo92ieutZ3kiGdi4-68" vertex="1">
          <mxGeometry x="85" width="75" height="30" as="geometry">
            <mxRectangle width="75" height="30" as="alternateBounds" />
          </mxGeometry>
        </mxCell>
        <mxCell id="cqDrvo92ieutZ3kiGdi4-71" value="PK" style="shape=partialRectangle;overflow=hidden;connectable=0;fillColor=none;top=0;left=0;bottom=0;right=0;align=left;spacingLeft=6;labelBackgroundColor=none;" parent="cqDrvo92ieutZ3kiGdi4-68" vertex="1">
          <mxGeometry x="160" width="60" height="30" as="geometry">
            <mxRectangle width="60" height="30" as="alternateBounds" />
          </mxGeometry>
        </mxCell>
        <mxCell id="CzzNRiv-S8m8q948nXzf-1" style="shape=partialRectangle;collapsible=0;dropTarget=0;pointerEvents=0;fillColor=none;points=[[0,0.5],[1,0.5]];portConstraint=eastwest;top=0;left=0;right=0;bottom=0;labelBackgroundColor=none;" parent="cqDrvo92ieutZ3kiGdi4-63" vertex="1">
          <mxGeometry y="60" width="220" height="30" as="geometry" />
        </mxCell>
        <mxCell id="CzzNRiv-S8m8q948nXzf-2" value="CourseName" style="shape=partialRectangle;overflow=hidden;connectable=0;fillColor=none;top=0;left=0;bottom=0;right=0;align=left;spacingLeft=6;labelBackgroundColor=none;" parent="CzzNRiv-S8m8q948nXzf-1" vertex="1">
          <mxGeometry width="85" height="30" as="geometry">
            <mxRectangle width="85" height="30" as="alternateBounds" />
          </mxGeometry>
        </mxCell>
        <mxCell id="CzzNRiv-S8m8q948nXzf-3" value="str" style="shape=partialRectangle;overflow=hidden;connectable=0;fillColor=none;top=0;left=0;bottom=0;right=0;align=left;spacingLeft=6;labelBackgroundColor=none;" parent="CzzNRiv-S8m8q948nXzf-1" vertex="1">
          <mxGeometry x="85" width="75" height="30" as="geometry">
            <mxRectangle width="75" height="30" as="alternateBounds" />
          </mxGeometry>
        </mxCell>
        <mxCell id="CzzNRiv-S8m8q948nXzf-4" style="shape=partialRectangle;overflow=hidden;connectable=0;fillColor=none;top=0;left=0;bottom=0;right=0;align=left;spacingLeft=6;labelBackgroundColor=none;" parent="CzzNRiv-S8m8q948nXzf-1" vertex="1">
          <mxGeometry x="160" width="60" height="30" as="geometry">
            <mxRectangle width="60" height="30" as="alternateBounds" />
          </mxGeometry>
        </mxCell>
        <mxCell id="CzzNRiv-S8m8q948nXzf-5" value="CourseLecturerOfGroup" style="shape=table;startSize=30;container=1;collapsible=1;childLayout=tableLayout;fixedRows=1;rowLines=0;fontStyle=1;align=center;resizeLast=1;labelBackgroundColor=none;swimlaneLine=1;rounded=0;strokeWidth=4;opacity=50;" parent="1" vertex="1" collapsed="1">
          <mxGeometry x="515" y="340" width="150" height="30" as="geometry">
            <mxRectangle x="480" y="310" width="220" height="70" as="alternateBounds" />
          </mxGeometry>
        </mxCell>
        <mxCell id="CzzNRiv-S8m8q948nXzf-14" style="shape=partialRectangle;collapsible=0;dropTarget=0;pointerEvents=0;fillColor=none;points=[[0,0.5],[1,0.5]];portConstraint=eastwest;top=0;left=0;right=0;bottom=0;labelBackgroundColor=none;" parent="CzzNRiv-S8m8q948nXzf-5" vertex="1">
          <mxGeometry y="30" width="220" height="30" as="geometry" />
        </mxCell>
        <mxCell id="CzzNRiv-S8m8q948nXzf-15" value="LecturerId" style="shape=partialRectangle;overflow=hidden;connectable=0;fillColor=none;top=0;left=0;bottom=0;right=0;align=left;spacingLeft=6;labelBackgroundColor=none;" parent="CzzNRiv-S8m8q948nXzf-14" vertex="1">
          <mxGeometry width="120.00000000000023" height="30" as="geometry">
            <mxRectangle width="120.00000000000023" height="30" as="alternateBounds" />
          </mxGeometry>
        </mxCell>
        <mxCell id="CzzNRiv-S8m8q948nXzf-16" value="id" style="shape=partialRectangle;overflow=hidden;connectable=0;fillColor=none;top=0;left=0;bottom=0;right=0;align=left;spacingLeft=6;labelBackgroundColor=none;" parent="CzzNRiv-S8m8q948nXzf-14" vertex="1">
          <mxGeometry x="120.00000000000023" width="49.99999999999977" height="30" as="geometry">
            <mxRectangle width="49.99999999999977" height="30" as="alternateBounds" />
          </mxGeometry>
        </mxCell>
        <mxCell id="CzzNRiv-S8m8q948nXzf-17" style="shape=partialRectangle;overflow=hidden;connectable=0;fillColor=none;top=0;left=0;bottom=0;right=0;align=left;spacingLeft=6;labelBackgroundColor=none;" parent="CzzNRiv-S8m8q948nXzf-14" vertex="1">
          <mxGeometry x="170" width="50" height="30" as="geometry">
            <mxRectangle width="50" height="30" as="alternateBounds" />
          </mxGeometry>
        </mxCell>
        <mxCell id="CzzNRiv-S8m8q948nXzf-31" value="Lecturer" style="shape=table;startSize=30;container=1;collapsible=1;childLayout=tableLayout;fixedRows=1;rowLines=0;fontStyle=1;align=center;resizeLast=1;labelBackgroundColor=none;swimlaneLine=1;" parent="1" vertex="1">
          <mxGeometry x="480" y="120" width="220" height="100" as="geometry">
            <mxRectangle x="450" y="120" width="80" height="30" as="alternateBounds" />
          </mxGeometry>
        </mxCell>
        <mxCell id="CzzNRiv-S8m8q948nXzf-32" value="" style="shape=partialRectangle;collapsible=0;dropTarget=0;pointerEvents=0;fillColor=none;points=[[0,0.5],[1,0.5]];portConstraint=eastwest;top=0;left=0;right=0;bottom=0;labelBackgroundColor=none;" parent="CzzNRiv-S8m8q948nXzf-31" vertex="1">
          <mxGeometry y="30" width="220" height="30" as="geometry" />
        </mxCell>
        <mxCell id="CzzNRiv-S8m8q948nXzf-33" value="LecturerId" style="shape=partialRectangle;overflow=hidden;connectable=0;fillColor=none;top=0;left=0;bottom=0;right=0;align=left;spacingLeft=6;labelBackgroundColor=none;" parent="CzzNRiv-S8m8q948nXzf-32" vertex="1">
          <mxGeometry width="120.00000000000023" height="30" as="geometry">
            <mxRectangle width="120.00000000000023" height="30" as="alternateBounds" />
          </mxGeometry>
        </mxCell>
        <mxCell id="CzzNRiv-S8m8q948nXzf-34" value="isu_id" style="shape=partialRectangle;overflow=hidden;connectable=0;fillColor=none;top=0;left=0;bottom=0;right=0;align=left;spacingLeft=6;labelBackgroundColor=none;" parent="CzzNRiv-S8m8q948nXzf-32" vertex="1">
          <mxGeometry x="120.00000000000023" width="49.99999999999977" height="30" as="geometry">
            <mxRectangle width="49.99999999999977" height="30" as="alternateBounds" />
          </mxGeometry>
        </mxCell>
        <mxCell id="CzzNRiv-S8m8q948nXzf-35" value="PK " style="shape=partialRectangle;overflow=hidden;connectable=0;fillColor=none;top=0;left=0;bottom=0;right=0;align=left;spacingLeft=6;labelBackgroundColor=none;" parent="CzzNRiv-S8m8q948nXzf-32" vertex="1">
          <mxGeometry x="170" width="50" height="30" as="geometry">
            <mxRectangle width="50" height="30" as="alternateBounds" />
          </mxGeometry>
        </mxCell>
        <mxCell id="CzzNRiv-S8m8q948nXzf-36" value="" style="shape=partialRectangle;collapsible=0;dropTarget=0;pointerEvents=0;fillColor=none;points=[[0,0.5],[1,0.5]];portConstraint=eastwest;top=0;left=0;right=0;bottom=0;labelBackgroundColor=none;" parent="CzzNRiv-S8m8q948nXzf-31" vertex="1">
          <mxGeometry y="60" width="220" height="30" as="geometry" />
        </mxCell>
        <mxCell id="CzzNRiv-S8m8q948nXzf-37" value="LecturerName" style="shape=partialRectangle;overflow=hidden;connectable=0;fillColor=none;top=0;left=0;bottom=0;right=0;align=left;spacingLeft=6;labelBackgroundColor=none;" parent="CzzNRiv-S8m8q948nXzf-36" vertex="1">
          <mxGeometry width="120.00000000000023" height="30" as="geometry">
            <mxRectangle width="120.00000000000023" height="30" as="alternateBounds" />
          </mxGeometry>
        </mxCell>
        <mxCell id="CzzNRiv-S8m8q948nXzf-38" value="str" style="shape=partialRectangle;overflow=hidden;connectable=0;fillColor=none;top=0;left=0;bottom=0;right=0;align=left;spacingLeft=6;labelBackgroundColor=none;" parent="CzzNRiv-S8m8q948nXzf-36" vertex="1">
          <mxGeometry x="120.00000000000023" width="49.99999999999977" height="30" as="geometry">
            <mxRectangle width="49.99999999999977" height="30" as="alternateBounds" />
          </mxGeometry>
        </mxCell>
        <mxCell id="CzzNRiv-S8m8q948nXzf-39" value="" style="shape=partialRectangle;overflow=hidden;connectable=0;fillColor=none;top=0;left=0;bottom=0;right=0;align=left;spacingLeft=6;labelBackgroundColor=none;" parent="CzzNRiv-S8m8q948nXzf-36" vertex="1">
          <mxGeometry x="170" width="50" height="30" as="geometry">
            <mxRectangle width="50" height="30" as="alternateBounds" />
          </mxGeometry>
        </mxCell>
        <mxCell id="d1E9yu58TmowH3p-16cs-1" value="" style="endArrow=ERmany;html=1;rounded=0;startArrow=ERone;startFill=0;endFill=0;" edge="1" parent="1" source="cqDrvo92ieutZ3kiGdi4-50" target="C-vyLk0tnHw3VtMMgP7b-2">
          <mxGeometry width="50" height="50" relative="1" as="geometry">
            <mxPoint x="700" y="420" as="sourcePoint" />
            <mxPoint x="750" y="370" as="targetPoint" />
          </mxGeometry>
        </mxCell>
        <mxCell id="d1E9yu58TmowH3p-16cs-2" value="student" style="shape=table;startSize=30;container=1;collapsible=1;childLayout=tableLayout;fixedRows=1;rowLines=0;fontStyle=1;align=center;resizeLast=1;labelBackgroundColor=none;" vertex="1" parent="1">
          <mxGeometry x="1025" y="500" width="210" height="130" as="geometry">
            <mxRectangle x="410" y="100" width="80" height="30" as="alternateBounds" />
          </mxGeometry>
        </mxCell>
        <mxCell id="d1E9yu58TmowH3p-16cs-3" value="" style="shape=partialRectangle;collapsible=0;dropTarget=0;pointerEvents=0;fillColor=none;points=[[0,0.5],[1,0.5]];portConstraint=eastwest;top=0;left=0;right=0;bottom=0;labelBackgroundColor=none;" vertex="1" parent="d1E9yu58TmowH3p-16cs-2">
          <mxGeometry y="30" width="210" height="30" as="geometry" />
        </mxCell>
        <mxCell id="d1E9yu58TmowH3p-16cs-4" value="student_id" style="shape=partialRectangle;overflow=hidden;connectable=0;fillColor=none;top=0;left=0;bottom=0;right=0;align=left;spacingLeft=6;labelBackgroundColor=none;" vertex="1" parent="d1E9yu58TmowH3p-16cs-3">
          <mxGeometry width="90" height="30" as="geometry">
            <mxRectangle width="90" height="30" as="alternateBounds" />
          </mxGeometry>
        </mxCell>
        <mxCell id="d1E9yu58TmowH3p-16cs-5" value="int" style="shape=partialRectangle;overflow=hidden;connectable=0;fillColor=none;top=0;left=0;bottom=0;right=0;align=left;spacingLeft=6;labelBackgroundColor=none;" vertex="1" parent="d1E9yu58TmowH3p-16cs-3">
          <mxGeometry x="90" width="80" height="30" as="geometry">
            <mxRectangle width="80" height="30" as="alternateBounds" />
          </mxGeometry>
        </mxCell>
        <mxCell id="d1E9yu58TmowH3p-16cs-6" value="PK " style="shape=partialRectangle;overflow=hidden;connectable=0;fillColor=none;top=0;left=0;bottom=0;right=0;align=left;spacingLeft=6;labelBackgroundColor=none;" vertex="1" parent="d1E9yu58TmowH3p-16cs-3">
          <mxGeometry x="170" width="40" height="30" as="geometry">
            <mxRectangle width="40" height="30" as="alternateBounds" />
          </mxGeometry>
        </mxCell>
        <mxCell id="d1E9yu58TmowH3p-16cs-7" value="" style="shape=partialRectangle;collapsible=0;dropTarget=0;pointerEvents=0;fillColor=none;points=[[0,0.5],[1,0.5]];portConstraint=eastwest;top=0;left=0;right=0;bottom=0;labelBackgroundColor=none;" vertex="1" parent="d1E9yu58TmowH3p-16cs-2">
          <mxGeometry y="60" width="210" height="30" as="geometry" />
        </mxCell>
        <mxCell id="d1E9yu58TmowH3p-16cs-8" value="student_name" style="shape=partialRectangle;overflow=hidden;connectable=0;fillColor=none;top=0;left=0;bottom=0;right=0;align=left;spacingLeft=6;labelBackgroundColor=none;" vertex="1" parent="d1E9yu58TmowH3p-16cs-7">
          <mxGeometry width="90" height="30" as="geometry">
            <mxRectangle width="90" height="30" as="alternateBounds" />
          </mxGeometry>
        </mxCell>
        <mxCell id="d1E9yu58TmowH3p-16cs-9" value="varchar(100)" style="shape=partialRectangle;overflow=hidden;connectable=0;fillColor=none;top=0;left=0;bottom=0;right=0;align=left;spacingLeft=6;labelBackgroundColor=none;" vertex="1" parent="d1E9yu58TmowH3p-16cs-7">
          <mxGeometry x="90" width="80" height="30" as="geometry">
            <mxRectangle width="80" height="30" as="alternateBounds" />
          </mxGeometry>
        </mxCell>
        <mxCell id="d1E9yu58TmowH3p-16cs-10" value="" style="shape=partialRectangle;overflow=hidden;connectable=0;fillColor=none;top=0;left=0;bottom=0;right=0;align=left;spacingLeft=6;labelBackgroundColor=none;" vertex="1" parent="d1E9yu58TmowH3p-16cs-7">
          <mxGeometry x="170" width="40" height="30" as="geometry">
            <mxRectangle width="40" height="30" as="alternateBounds" />
          </mxGeometry>
        </mxCell>
        <mxCell id="d1E9yu58TmowH3p-16cs-11" style="shape=partialRectangle;collapsible=0;dropTarget=0;pointerEvents=0;fillColor=none;points=[[0,0.5],[1,0.5]];portConstraint=eastwest;top=0;left=0;right=0;bottom=0;labelBackgroundColor=none;" vertex="1" parent="d1E9yu58TmowH3p-16cs-2">
          <mxGeometry y="90" width="210" height="30" as="geometry" />
        </mxCell>
        <mxCell id="d1E9yu58TmowH3p-16cs-12" value="group_id" style="shape=partialRectangle;overflow=hidden;connectable=0;fillColor=none;top=0;left=0;bottom=0;right=0;align=left;spacingLeft=6;labelBackgroundColor=none;" vertex="1" parent="d1E9yu58TmowH3p-16cs-11">
          <mxGeometry width="90" height="30" as="geometry">
            <mxRectangle width="90" height="30" as="alternateBounds" />
          </mxGeometry>
        </mxCell>
        <mxCell id="d1E9yu58TmowH3p-16cs-13" value="int" style="shape=partialRectangle;overflow=hidden;connectable=0;fillColor=none;top=0;left=0;bottom=0;right=0;align=left;spacingLeft=6;labelBackgroundColor=none;" vertex="1" parent="d1E9yu58TmowH3p-16cs-11">
          <mxGeometry x="90" width="80" height="30" as="geometry">
            <mxRectangle width="80" height="30" as="alternateBounds" />
          </mxGeometry>
        </mxCell>
        <mxCell id="d1E9yu58TmowH3p-16cs-14" value="FK1" style="shape=partialRectangle;overflow=hidden;connectable=0;fillColor=none;top=0;left=0;bottom=0;right=0;align=left;spacingLeft=6;labelBackgroundColor=none;" vertex="1" parent="d1E9yu58TmowH3p-16cs-11">
          <mxGeometry x="170" width="40" height="30" as="geometry">
            <mxRectangle width="40" height="30" as="alternateBounds" />
          </mxGeometry>
        </mxCell>
        <mxCell id="d1E9yu58TmowH3p-16cs-15" value="mark" style="shape=table;startSize=30;container=1;collapsible=1;childLayout=tableLayout;fixedRows=1;rowLines=0;fontStyle=1;align=center;resizeLast=1;labelBackgroundColor=none;" vertex="1" parent="1">
          <mxGeometry x="1020" y="270" width="220" height="130" as="geometry">
            <mxRectangle x="450" y="120" width="80" height="30" as="alternateBounds" />
          </mxGeometry>
        </mxCell>
        <mxCell id="d1E9yu58TmowH3p-16cs-16" value="" style="shape=partialRectangle;collapsible=0;dropTarget=0;pointerEvents=0;fillColor=none;points=[[0,0.5],[1,0.5]];portConstraint=eastwest;top=0;left=0;right=0;bottom=0;labelBackgroundColor=none;" vertex="1" parent="d1E9yu58TmowH3p-16cs-15">
          <mxGeometry y="30" width="220" height="30" as="geometry" />
        </mxCell>
        <mxCell id="d1E9yu58TmowH3p-16cs-17" value="student_id" style="shape=partialRectangle;overflow=hidden;connectable=0;fillColor=none;top=0;left=0;bottom=0;right=0;align=left;spacingLeft=6;labelBackgroundColor=none;" vertex="1" parent="d1E9yu58TmowH3p-16cs-16">
          <mxGeometry width="70" height="30" as="geometry">
            <mxRectangle width="70" height="30" as="alternateBounds" />
          </mxGeometry>
        </mxCell>
        <mxCell id="d1E9yu58TmowH3p-16cs-18" value="int" style="shape=partialRectangle;overflow=hidden;connectable=0;fillColor=none;top=0;left=0;bottom=0;right=0;align=left;spacingLeft=6;labelBackgroundColor=none;" vertex="1" parent="d1E9yu58TmowH3p-16cs-16">
          <mxGeometry x="70" width="90" height="30" as="geometry">
            <mxRectangle width="90" height="30" as="alternateBounds" />
          </mxGeometry>
        </mxCell>
        <mxCell id="d1E9yu58TmowH3p-16cs-19" value="PK FK1" style="shape=partialRectangle;overflow=hidden;connectable=0;fillColor=none;top=0;left=0;bottom=0;right=0;align=left;spacingLeft=6;labelBackgroundColor=none;" vertex="1" parent="d1E9yu58TmowH3p-16cs-16">
          <mxGeometry x="160" width="60" height="30" as="geometry">
            <mxRectangle width="60" height="30" as="alternateBounds" />
          </mxGeometry>
        </mxCell>
        <mxCell id="d1E9yu58TmowH3p-16cs-20" value="" style="shape=partialRectangle;collapsible=0;dropTarget=0;pointerEvents=0;fillColor=none;points=[[0,0.5],[1,0.5]];portConstraint=eastwest;top=0;left=0;right=0;bottom=0;labelBackgroundColor=none;" vertex="1" parent="d1E9yu58TmowH3p-16cs-15">
          <mxGeometry y="60" width="220" height="30" as="geometry" />
        </mxCell>
        <mxCell id="d1E9yu58TmowH3p-16cs-21" value="course_id" style="shape=partialRectangle;overflow=hidden;connectable=0;fillColor=none;top=0;left=0;bottom=0;right=0;align=left;spacingLeft=6;labelBackgroundColor=none;" vertex="1" parent="d1E9yu58TmowH3p-16cs-20">
          <mxGeometry width="70" height="30" as="geometry">
            <mxRectangle width="70" height="30" as="alternateBounds" />
          </mxGeometry>
        </mxCell>
        <mxCell id="d1E9yu58TmowH3p-16cs-22" value="int" style="shape=partialRectangle;overflow=hidden;connectable=0;fillColor=none;top=0;left=0;bottom=0;right=0;align=left;spacingLeft=6;labelBackgroundColor=none;" vertex="1" parent="d1E9yu58TmowH3p-16cs-20">
          <mxGeometry x="70" width="90" height="30" as="geometry">
            <mxRectangle width="90" height="30" as="alternateBounds" />
          </mxGeometry>
        </mxCell>
        <mxCell id="d1E9yu58TmowH3p-16cs-23" value="PK FK2" style="shape=partialRectangle;overflow=hidden;connectable=0;fillColor=none;top=0;left=0;bottom=0;right=0;align=left;spacingLeft=6;labelBackgroundColor=none;" vertex="1" parent="d1E9yu58TmowH3p-16cs-20">
          <mxGeometry x="160" width="60" height="30" as="geometry">
            <mxRectangle width="60" height="30" as="alternateBounds" />
          </mxGeometry>
        </mxCell>
        <mxCell id="d1E9yu58TmowH3p-16cs-24" style="shape=partialRectangle;collapsible=0;dropTarget=0;pointerEvents=0;fillColor=none;points=[[0,0.5],[1,0.5]];portConstraint=eastwest;top=0;left=0;right=0;bottom=0;labelBackgroundColor=none;" vertex="1" parent="d1E9yu58TmowH3p-16cs-15">
          <mxGeometry y="90" width="220" height="30" as="geometry" />
        </mxCell>
        <mxCell id="d1E9yu58TmowH3p-16cs-25" value="mark" style="shape=partialRectangle;overflow=hidden;connectable=0;fillColor=none;top=0;left=0;bottom=0;right=0;align=left;spacingLeft=6;labelBackgroundColor=none;" vertex="1" parent="d1E9yu58TmowH3p-16cs-24">
          <mxGeometry width="70" height="30" as="geometry">
            <mxRectangle width="70" height="30" as="alternateBounds" />
          </mxGeometry>
        </mxCell>
        <mxCell id="d1E9yu58TmowH3p-16cs-26" value="numeric(5, 2)" style="shape=partialRectangle;overflow=hidden;connectable=0;fillColor=none;top=0;left=0;bottom=0;right=0;align=left;spacingLeft=6;labelBackgroundColor=none;" vertex="1" parent="d1E9yu58TmowH3p-16cs-24">
          <mxGeometry x="70" width="90" height="30" as="geometry">
            <mxRectangle width="90" height="30" as="alternateBounds" />
          </mxGeometry>
        </mxCell>
        <mxCell id="d1E9yu58TmowH3p-16cs-27" value="" style="shape=partialRectangle;overflow=hidden;connectable=0;fillColor=none;top=0;left=0;bottom=0;right=0;align=left;spacingLeft=6;labelBackgroundColor=none;" vertex="1" parent="d1E9yu58TmowH3p-16cs-24">
          <mxGeometry x="160" width="60" height="30" as="geometry">
            <mxRectangle width="60" height="30" as="alternateBounds" />
          </mxGeometry>
        </mxCell>
        <mxCell id="d1E9yu58TmowH3p-16cs-28" value="group_university" style="shape=table;startSize=30;container=1;collapsible=1;childLayout=tableLayout;fixedRows=1;rowLines=0;fontStyle=1;align=center;resizeLast=1;labelBackgroundColor=none;swimlaneLine=1;" vertex="1" parent="1">
          <mxGeometry x="1420" y="520" width="220" height="100" as="geometry">
            <mxRectangle x="450" y="120" width="80" height="30" as="alternateBounds" />
          </mxGeometry>
        </mxCell>
        <mxCell id="d1E9yu58TmowH3p-16cs-29" value="" style="shape=partialRectangle;collapsible=0;dropTarget=0;pointerEvents=0;fillColor=none;points=[[0,0.5],[1,0.5]];portConstraint=eastwest;top=0;left=0;right=0;bottom=0;labelBackgroundColor=none;" vertex="1" parent="d1E9yu58TmowH3p-16cs-28">
          <mxGeometry y="30" width="220" height="30" as="geometry" />
        </mxCell>
        <mxCell id="d1E9yu58TmowH3p-16cs-30" value="group_id" style="shape=partialRectangle;overflow=hidden;connectable=0;fillColor=none;top=0;left=0;bottom=0;right=0;align=left;spacingLeft=6;labelBackgroundColor=none;" vertex="1" parent="d1E9yu58TmowH3p-16cs-29">
          <mxGeometry width="85" height="30" as="geometry">
            <mxRectangle width="85" height="30" as="alternateBounds" />
          </mxGeometry>
        </mxCell>
        <mxCell id="d1E9yu58TmowH3p-16cs-31" value="id" style="shape=partialRectangle;overflow=hidden;connectable=0;fillColor=none;top=0;left=0;bottom=0;right=0;align=left;spacingLeft=6;labelBackgroundColor=none;" vertex="1" parent="d1E9yu58TmowH3p-16cs-29">
          <mxGeometry x="85" width="85" height="30" as="geometry">
            <mxRectangle width="85" height="30" as="alternateBounds" />
          </mxGeometry>
        </mxCell>
        <mxCell id="d1E9yu58TmowH3p-16cs-32" value="PK " style="shape=partialRectangle;overflow=hidden;connectable=0;fillColor=none;top=0;left=0;bottom=0;right=0;align=left;spacingLeft=6;labelBackgroundColor=none;" vertex="1" parent="d1E9yu58TmowH3p-16cs-29">
          <mxGeometry x="170" width="50" height="30" as="geometry">
            <mxRectangle width="50" height="30" as="alternateBounds" />
          </mxGeometry>
        </mxCell>
        <mxCell id="d1E9yu58TmowH3p-16cs-33" value="" style="shape=partialRectangle;collapsible=0;dropTarget=0;pointerEvents=0;fillColor=none;points=[[0,0.5],[1,0.5]];portConstraint=eastwest;top=0;left=0;right=0;bottom=0;labelBackgroundColor=none;" vertex="1" parent="d1E9yu58TmowH3p-16cs-28">
          <mxGeometry y="60" width="220" height="30" as="geometry" />
        </mxCell>
        <mxCell id="d1E9yu58TmowH3p-16cs-34" value="group_name" style="shape=partialRectangle;overflow=hidden;connectable=0;fillColor=none;top=0;left=0;bottom=0;right=0;align=left;spacingLeft=6;labelBackgroundColor=none;" vertex="1" parent="d1E9yu58TmowH3p-16cs-33">
          <mxGeometry width="85" height="30" as="geometry">
            <mxRectangle width="85" height="30" as="alternateBounds" />
          </mxGeometry>
        </mxCell>
        <mxCell id="d1E9yu58TmowH3p-16cs-35" value="varchar(100)" style="shape=partialRectangle;overflow=hidden;connectable=0;fillColor=none;top=0;left=0;bottom=0;right=0;align=left;spacingLeft=6;labelBackgroundColor=none;" vertex="1" parent="d1E9yu58TmowH3p-16cs-33">
          <mxGeometry x="85" width="85" height="30" as="geometry">
            <mxRectangle width="85" height="30" as="alternateBounds" />
          </mxGeometry>
        </mxCell>
        <mxCell id="d1E9yu58TmowH3p-16cs-36" value="K1" style="shape=partialRectangle;overflow=hidden;connectable=0;fillColor=none;top=0;left=0;bottom=0;right=0;align=left;spacingLeft=6;labelBackgroundColor=none;" vertex="1" parent="d1E9yu58TmowH3p-16cs-33">
          <mxGeometry x="170" width="50" height="30" as="geometry">
            <mxRectangle width="50" height="30" as="alternateBounds" />
          </mxGeometry>
        </mxCell>
        <mxCell id="d1E9yu58TmowH3p-16cs-37" value="course" style="shape=table;startSize=30;container=1;collapsible=1;childLayout=tableLayout;fixedRows=1;rowLines=0;fontStyle=1;align=center;resizeLast=1;labelBackgroundColor=none;strokeWidth=1;shadow=0;rounded=0;swimlaneLine=1;strokeColor=default;gradientColor=none;fillColor=default;absoluteArcSize=0;noLabel=0;portConstraintRotation=0;enumerate=0;treeFolding=0;treeMoving=0;autosize=0;" vertex="1" parent="1">
          <mxGeometry x="1025" y="80" width="210" height="100" as="geometry">
            <mxRectangle x="450" y="120" width="80" height="30" as="alternateBounds" />
          </mxGeometry>
        </mxCell>
        <mxCell id="d1E9yu58TmowH3p-16cs-38" value="" style="shape=partialRectangle;collapsible=0;dropTarget=0;pointerEvents=0;fillColor=none;points=[[0,0.5],[1,0.5]];portConstraint=eastwest;top=0;left=0;right=0;bottom=0;labelBackgroundColor=none;" vertex="1" parent="d1E9yu58TmowH3p-16cs-37">
          <mxGeometry y="30" width="210" height="30" as="geometry" />
        </mxCell>
        <mxCell id="d1E9yu58TmowH3p-16cs-39" value="course_id" style="shape=partialRectangle;overflow=hidden;connectable=0;fillColor=none;top=0;left=0;bottom=0;right=0;align=left;spacingLeft=6;labelBackgroundColor=none;" vertex="1" parent="d1E9yu58TmowH3p-16cs-38">
          <mxGeometry width="85" height="30" as="geometry">
            <mxRectangle width="85" height="30" as="alternateBounds" />
          </mxGeometry>
        </mxCell>
        <mxCell id="d1E9yu58TmowH3p-16cs-40" value="int" style="shape=partialRectangle;overflow=hidden;connectable=0;fillColor=none;top=0;left=0;bottom=0;right=0;align=left;spacingLeft=6;labelBackgroundColor=none;" vertex="1" parent="d1E9yu58TmowH3p-16cs-38">
          <mxGeometry x="85" width="85" height="30" as="geometry">
            <mxRectangle width="85" height="30" as="alternateBounds" />
          </mxGeometry>
        </mxCell>
        <mxCell id="d1E9yu58TmowH3p-16cs-41" value="PK" style="shape=partialRectangle;overflow=hidden;connectable=0;fillColor=none;top=0;left=0;bottom=0;right=0;align=left;spacingLeft=6;labelBackgroundColor=none;" vertex="1" parent="d1E9yu58TmowH3p-16cs-38">
          <mxGeometry x="170" width="40" height="30" as="geometry">
            <mxRectangle width="40" height="30" as="alternateBounds" />
          </mxGeometry>
        </mxCell>
        <mxCell id="d1E9yu58TmowH3p-16cs-42" style="shape=partialRectangle;collapsible=0;dropTarget=0;pointerEvents=0;fillColor=none;points=[[0,0.5],[1,0.5]];portConstraint=eastwest;top=0;left=0;right=0;bottom=0;labelBackgroundColor=none;" vertex="1" parent="d1E9yu58TmowH3p-16cs-37">
          <mxGeometry y="60" width="210" height="30" as="geometry" />
        </mxCell>
        <mxCell id="d1E9yu58TmowH3p-16cs-43" value="course_name" style="shape=partialRectangle;overflow=hidden;connectable=0;fillColor=none;top=0;left=0;bottom=0;right=0;align=left;spacingLeft=6;labelBackgroundColor=none;" vertex="1" parent="d1E9yu58TmowH3p-16cs-42">
          <mxGeometry width="85" height="30" as="geometry">
            <mxRectangle width="85" height="30" as="alternateBounds" />
          </mxGeometry>
        </mxCell>
        <mxCell id="d1E9yu58TmowH3p-16cs-44" value="varchar(100)" style="shape=partialRectangle;overflow=hidden;connectable=0;fillColor=none;top=0;left=0;bottom=0;right=0;align=left;spacingLeft=6;labelBackgroundColor=none;" vertex="1" parent="d1E9yu58TmowH3p-16cs-42">
          <mxGeometry x="85" width="85" height="30" as="geometry">
            <mxRectangle width="85" height="30" as="alternateBounds" />
          </mxGeometry>
        </mxCell>
        <mxCell id="d1E9yu58TmowH3p-16cs-45" style="shape=partialRectangle;overflow=hidden;connectable=0;fillColor=none;top=0;left=0;bottom=0;right=0;align=left;spacingLeft=6;labelBackgroundColor=none;" vertex="1" parent="d1E9yu58TmowH3p-16cs-42">
          <mxGeometry x="170" width="40" height="30" as="geometry">
            <mxRectangle width="40" height="30" as="alternateBounds" />
          </mxGeometry>
        </mxCell>
        <mxCell id="d1E9yu58TmowH3p-16cs-46" value="course_lecturer_of_group" style="shape=table;startSize=30;container=1;collapsible=1;childLayout=tableLayout;fixedRows=1;rowLines=0;fontStyle=1;align=center;resizeLast=1;labelBackgroundColor=none;swimlaneLine=1;" vertex="1" parent="1">
          <mxGeometry x="1420" y="330" width="220" height="130" as="geometry">
            <mxRectangle x="450" y="120" width="80" height="30" as="alternateBounds" />
          </mxGeometry>
        </mxCell>
        <mxCell id="d1E9yu58TmowH3p-16cs-47" value="" style="shape=partialRectangle;collapsible=0;dropTarget=0;pointerEvents=0;fillColor=none;points=[[0,0.5],[1,0.5]];portConstraint=eastwest;top=0;left=0;right=0;bottom=0;labelBackgroundColor=none;" vertex="1" parent="d1E9yu58TmowH3p-16cs-46">
          <mxGeometry y="30" width="220" height="30" as="geometry" />
        </mxCell>
        <mxCell id="d1E9yu58TmowH3p-16cs-48" value="group_id" style="shape=partialRectangle;overflow=hidden;connectable=0;fillColor=none;top=0;left=0;bottom=0;right=0;align=left;spacingLeft=6;labelBackgroundColor=none;" vertex="1" parent="d1E9yu58TmowH3p-16cs-47">
          <mxGeometry width="120.00000000000023" height="30" as="geometry">
            <mxRectangle width="120.00000000000023" height="30" as="alternateBounds" />
          </mxGeometry>
        </mxCell>
        <mxCell id="d1E9yu58TmowH3p-16cs-49" value="int" style="shape=partialRectangle;overflow=hidden;connectable=0;fillColor=none;top=0;left=0;bottom=0;right=0;align=left;spacingLeft=6;labelBackgroundColor=none;" vertex="1" parent="d1E9yu58TmowH3p-16cs-47">
          <mxGeometry x="120.00000000000023" width="40" height="30" as="geometry">
            <mxRectangle width="40" height="30" as="alternateBounds" />
          </mxGeometry>
        </mxCell>
        <mxCell id="d1E9yu58TmowH3p-16cs-50" value="PK FK1" style="shape=partialRectangle;overflow=hidden;connectable=0;fillColor=none;top=0;left=0;bottom=0;right=0;align=left;spacingLeft=6;labelBackgroundColor=none;" vertex="1" parent="d1E9yu58TmowH3p-16cs-47">
          <mxGeometry x="160.00000000000023" width="59.99999999999977" height="30" as="geometry">
            <mxRectangle width="59.99999999999977" height="30" as="alternateBounds" />
          </mxGeometry>
        </mxCell>
        <mxCell id="d1E9yu58TmowH3p-16cs-51" value="" style="shape=partialRectangle;collapsible=0;dropTarget=0;pointerEvents=0;fillColor=none;points=[[0,0.5],[1,0.5]];portConstraint=eastwest;top=0;left=0;right=0;bottom=0;labelBackgroundColor=none;" vertex="1" parent="d1E9yu58TmowH3p-16cs-46">
          <mxGeometry y="60" width="220" height="30" as="geometry" />
        </mxCell>
        <mxCell id="d1E9yu58TmowH3p-16cs-52" value="course_id" style="shape=partialRectangle;overflow=hidden;connectable=0;fillColor=none;top=0;left=0;bottom=0;right=0;align=left;spacingLeft=6;labelBackgroundColor=none;" vertex="1" parent="d1E9yu58TmowH3p-16cs-51">
          <mxGeometry width="120.00000000000023" height="30" as="geometry">
            <mxRectangle width="120.00000000000023" height="30" as="alternateBounds" />
          </mxGeometry>
        </mxCell>
        <mxCell id="d1E9yu58TmowH3p-16cs-53" value="int" style="shape=partialRectangle;overflow=hidden;connectable=0;fillColor=none;top=0;left=0;bottom=0;right=0;align=left;spacingLeft=6;labelBackgroundColor=none;" vertex="1" parent="d1E9yu58TmowH3p-16cs-51">
          <mxGeometry x="120.00000000000023" width="40" height="30" as="geometry">
            <mxRectangle width="40" height="30" as="alternateBounds" />
          </mxGeometry>
        </mxCell>
        <mxCell id="d1E9yu58TmowH3p-16cs-54" value="PK FK2" style="shape=partialRectangle;overflow=hidden;connectable=0;fillColor=none;top=0;left=0;bottom=0;right=0;align=left;spacingLeft=6;labelBackgroundColor=none;" vertex="1" parent="d1E9yu58TmowH3p-16cs-51">
          <mxGeometry x="160.00000000000023" width="59.99999999999977" height="30" as="geometry">
            <mxRectangle width="59.99999999999977" height="30" as="alternateBounds" />
          </mxGeometry>
        </mxCell>
        <mxCell id="d1E9yu58TmowH3p-16cs-55" style="shape=partialRectangle;collapsible=0;dropTarget=0;pointerEvents=0;fillColor=none;points=[[0,0.5],[1,0.5]];portConstraint=eastwest;top=0;left=0;right=0;bottom=0;labelBackgroundColor=none;" vertex="1" parent="d1E9yu58TmowH3p-16cs-46">
          <mxGeometry y="90" width="220" height="30" as="geometry" />
        </mxCell>
        <mxCell id="d1E9yu58TmowH3p-16cs-56" value="lecturer_id" style="shape=partialRectangle;overflow=hidden;connectable=0;fillColor=none;top=0;left=0;bottom=0;right=0;align=left;spacingLeft=6;labelBackgroundColor=none;" vertex="1" parent="d1E9yu58TmowH3p-16cs-55">
          <mxGeometry width="120.00000000000023" height="30" as="geometry">
            <mxRectangle width="120.00000000000023" height="30" as="alternateBounds" />
          </mxGeometry>
        </mxCell>
        <mxCell id="d1E9yu58TmowH3p-16cs-57" value="int" style="shape=partialRectangle;overflow=hidden;connectable=0;fillColor=none;top=0;left=0;bottom=0;right=0;align=left;spacingLeft=6;labelBackgroundColor=none;" vertex="1" parent="d1E9yu58TmowH3p-16cs-55">
          <mxGeometry x="120.00000000000023" width="40" height="30" as="geometry">
            <mxRectangle width="40" height="30" as="alternateBounds" />
          </mxGeometry>
        </mxCell>
        <mxCell id="d1E9yu58TmowH3p-16cs-58" value="FK3" style="shape=partialRectangle;overflow=hidden;connectable=0;fillColor=none;top=0;left=0;bottom=0;right=0;align=left;spacingLeft=6;labelBackgroundColor=none;" vertex="1" parent="d1E9yu58TmowH3p-16cs-55">
          <mxGeometry x="160.00000000000023" width="59.99999999999977" height="30" as="geometry">
            <mxRectangle width="59.99999999999977" height="30" as="alternateBounds" />
          </mxGeometry>
        </mxCell>
        <mxCell id="d1E9yu58TmowH3p-16cs-59" value="lecturer" style="shape=table;startSize=30;container=1;collapsible=1;childLayout=tableLayout;fixedRows=1;rowLines=0;fontStyle=1;align=center;resizeLast=1;labelBackgroundColor=none;swimlaneLine=1;" vertex="1" parent="1">
          <mxGeometry x="1420" y="140" width="220" height="100" as="geometry">
            <mxRectangle x="450" y="120" width="80" height="30" as="alternateBounds" />
          </mxGeometry>
        </mxCell>
        <mxCell id="d1E9yu58TmowH3p-16cs-60" value="" style="shape=partialRectangle;collapsible=0;dropTarget=0;pointerEvents=0;fillColor=none;points=[[0,0.5],[1,0.5]];portConstraint=eastwest;top=0;left=0;right=0;bottom=0;labelBackgroundColor=none;" vertex="1" parent="d1E9yu58TmowH3p-16cs-59">
          <mxGeometry y="30" width="220" height="30" as="geometry" />
        </mxCell>
        <mxCell id="d1E9yu58TmowH3p-16cs-61" value="lecturer_id" style="shape=partialRectangle;overflow=hidden;connectable=0;fillColor=none;top=0;left=0;bottom=0;right=0;align=left;spacingLeft=6;labelBackgroundColor=none;" vertex="1" parent="d1E9yu58TmowH3p-16cs-60">
          <mxGeometry width="100" height="30" as="geometry">
            <mxRectangle width="100" height="30" as="alternateBounds" />
          </mxGeometry>
        </mxCell>
        <mxCell id="d1E9yu58TmowH3p-16cs-62" value="int" style="shape=partialRectangle;overflow=hidden;connectable=0;fillColor=none;top=0;left=0;bottom=0;right=0;align=left;spacingLeft=6;labelBackgroundColor=none;" vertex="1" parent="d1E9yu58TmowH3p-16cs-60">
          <mxGeometry x="100" width="80" height="30" as="geometry">
            <mxRectangle width="80" height="30" as="alternateBounds" />
          </mxGeometry>
        </mxCell>
        <mxCell id="d1E9yu58TmowH3p-16cs-63" value="PK " style="shape=partialRectangle;overflow=hidden;connectable=0;fillColor=none;top=0;left=0;bottom=0;right=0;align=left;spacingLeft=6;labelBackgroundColor=none;" vertex="1" parent="d1E9yu58TmowH3p-16cs-60">
          <mxGeometry x="180" width="40" height="30" as="geometry">
            <mxRectangle width="40" height="30" as="alternateBounds" />
          </mxGeometry>
        </mxCell>
        <mxCell id="d1E9yu58TmowH3p-16cs-64" value="" style="shape=partialRectangle;collapsible=0;dropTarget=0;pointerEvents=0;fillColor=none;points=[[0,0.5],[1,0.5]];portConstraint=eastwest;top=0;left=0;right=0;bottom=0;labelBackgroundColor=none;" vertex="1" parent="d1E9yu58TmowH3p-16cs-59">
          <mxGeometry y="60" width="220" height="30" as="geometry" />
        </mxCell>
        <mxCell id="d1E9yu58TmowH3p-16cs-65" value="lecturer_name" style="shape=partialRectangle;overflow=hidden;connectable=0;fillColor=none;top=0;left=0;bottom=0;right=0;align=left;spacingLeft=6;labelBackgroundColor=none;" vertex="1" parent="d1E9yu58TmowH3p-16cs-64">
          <mxGeometry width="100" height="30" as="geometry">
            <mxRectangle width="100" height="30" as="alternateBounds" />
          </mxGeometry>
        </mxCell>
        <mxCell id="d1E9yu58TmowH3p-16cs-66" value="varchar(100)" style="shape=partialRectangle;overflow=hidden;connectable=0;fillColor=none;top=0;left=0;bottom=0;right=0;align=left;spacingLeft=6;labelBackgroundColor=none;" vertex="1" parent="d1E9yu58TmowH3p-16cs-64">
          <mxGeometry x="100" width="80" height="30" as="geometry">
            <mxRectangle width="80" height="30" as="alternateBounds" />
          </mxGeometry>
        </mxCell>
        <mxCell id="d1E9yu58TmowH3p-16cs-67" value="" style="shape=partialRectangle;overflow=hidden;connectable=0;fillColor=none;top=0;left=0;bottom=0;right=0;align=left;spacingLeft=6;labelBackgroundColor=none;" vertex="1" parent="d1E9yu58TmowH3p-16cs-64">
          <mxGeometry x="180" width="40" height="30" as="geometry">
            <mxRectangle width="40" height="30" as="alternateBounds" />
          </mxGeometry>
        </mxCell>
        <mxCell id="d1E9yu58TmowH3p-16cs-68" value="" style="endArrow=none;html=1;rounded=0;startArrow=block;startFill=1;endFill=0;" edge="1" parent="1" source="d1E9yu58TmowH3p-16cs-28" target="d1E9yu58TmowH3p-16cs-2">
          <mxGeometry width="50" height="50" relative="1" as="geometry">
            <mxPoint x="1570" y="420" as="sourcePoint" />
            <mxPoint x="1620" y="370" as="targetPoint" />
          </mxGeometry>
        </mxCell>
        <mxCell id="d1E9yu58TmowH3p-16cs-88" value="FK1" style="edgeLabel;html=1;align=center;verticalAlign=middle;resizable=0;points=[];" vertex="1" connectable="0" parent="d1E9yu58TmowH3p-16cs-68">
          <mxGeometry x="-0.0162" relative="1" as="geometry">
            <mxPoint as="offset" />
          </mxGeometry>
        </mxCell>
        <mxCell id="d1E9yu58TmowH3p-16cs-69" value="" style="endArrow=ERmany;html=1;rounded=0;startArrow=ERone;startFill=0;endFill=0;" edge="1" parent="1" source="C-vyLk0tnHw3VtMMgP7b-2" target="cqDrvo92ieutZ3kiGdi4-15">
          <mxGeometry width="50" height="50" relative="1" as="geometry">
            <mxPoint x="277" y="331" as="sourcePoint" />
            <mxPoint x="210" y="300" as="targetPoint" />
          </mxGeometry>
        </mxCell>
        <mxCell id="d1E9yu58TmowH3p-16cs-70" value="" style="endArrow=ERmany;html=1;rounded=0;startArrow=ERone;startFill=0;endFill=0;" edge="1" parent="1" source="cqDrvo92ieutZ3kiGdi4-63" target="cqDrvo92ieutZ3kiGdi4-15">
          <mxGeometry width="50" height="50" relative="1" as="geometry">
            <mxPoint x="260" y="435" as="sourcePoint" />
            <mxPoint x="325" y="417" as="targetPoint" />
          </mxGeometry>
        </mxCell>
        <mxCell id="d1E9yu58TmowH3p-16cs-71" value="" style="endArrow=ERmany;html=1;rounded=0;startArrow=ERone;startFill=0;endFill=0;shape=link;sourcePerimeterSpacing=7;targetPerimeterSpacing=7;" edge="1" parent="1" source="C-vyLk0tnHw3VtMMgP7b-2" target="cqDrvo92ieutZ3kiGdi4-15">
          <mxGeometry width="50" height="50" relative="1" as="geometry">
            <mxPoint x="270" y="445" as="sourcePoint" />
            <mxPoint x="335" y="427" as="targetPoint" />
          </mxGeometry>
        </mxCell>
        <mxCell id="d1E9yu58TmowH3p-16cs-72" value="" style="endArrow=ERmany;html=1;rounded=0;startArrow=ERone;startFill=0;endFill=0;shape=link;sourcePerimeterSpacing=7;targetPerimeterSpacing=7;" edge="1" parent="1" source="cqDrvo92ieutZ3kiGdi4-63" target="cqDrvo92ieutZ3kiGdi4-15">
          <mxGeometry width="50" height="50" relative="1" as="geometry">
            <mxPoint x="267" y="433" as="sourcePoint" />
            <mxPoint x="318" y="419" as="targetPoint" />
          </mxGeometry>
        </mxCell>
        <mxCell id="d1E9yu58TmowH3p-16cs-73" value="" style="endArrow=ERmany;html=1;rounded=0;startArrow=ERone;startFill=0;endFill=0;" edge="1" parent="1" source="CzzNRiv-S8m8q948nXzf-31" target="CzzNRiv-S8m8q948nXzf-5">
          <mxGeometry width="50" height="50" relative="1" as="geometry">
            <mxPoint x="490" y="450" as="sourcePoint" />
            <mxPoint x="540" y="400" as="targetPoint" />
          </mxGeometry>
        </mxCell>
        <mxCell id="d1E9yu58TmowH3p-16cs-74" value="" style="endArrow=ERmany;html=1;rounded=0;startArrow=ERone;startFill=0;endFill=0;" edge="1" parent="1" source="cqDrvo92ieutZ3kiGdi4-63" target="CzzNRiv-S8m8q948nXzf-5">
          <mxGeometry width="50" height="50" relative="1" as="geometry">
            <mxPoint x="690" y="425" as="sourcePoint" />
            <mxPoint x="690" y="365" as="targetPoint" />
          </mxGeometry>
        </mxCell>
        <mxCell id="d1E9yu58TmowH3p-16cs-75" value="" style="endArrow=ERmany;html=1;rounded=0;startArrow=ERone;startFill=0;endFill=0;" edge="1" parent="1" source="cqDrvo92ieutZ3kiGdi4-50" target="CzzNRiv-S8m8q948nXzf-5">
          <mxGeometry width="50" height="50" relative="1" as="geometry">
            <mxPoint x="700" y="435" as="sourcePoint" />
            <mxPoint x="700" y="375" as="targetPoint" />
          </mxGeometry>
        </mxCell>
        <mxCell id="d1E9yu58TmowH3p-16cs-76" value="" style="endArrow=none;html=1;rounded=0;startArrow=block;startFill=1;endFill=0;" edge="1" parent="1" source="d1E9yu58TmowH3p-16cs-2" target="d1E9yu58TmowH3p-16cs-15">
          <mxGeometry width="50" height="50" relative="1" as="geometry">
            <mxPoint x="1430" y="579" as="sourcePoint" />
            <mxPoint x="1240" y="576" as="targetPoint" />
          </mxGeometry>
        </mxCell>
        <mxCell id="d1E9yu58TmowH3p-16cs-89" value="FK1" style="edgeLabel;html=1;align=center;verticalAlign=middle;resizable=0;points=[];" vertex="1" connectable="0" parent="d1E9yu58TmowH3p-16cs-76">
          <mxGeometry x="0.08" y="1" relative="1" as="geometry">
            <mxPoint as="offset" />
          </mxGeometry>
        </mxCell>
        <mxCell id="d1E9yu58TmowH3p-16cs-77" value="" style="endArrow=none;html=1;rounded=0;startArrow=block;startFill=1;endFill=0;" edge="1" parent="1" source="d1E9yu58TmowH3p-16cs-37" target="d1E9yu58TmowH3p-16cs-15">
          <mxGeometry width="50" height="50" relative="1" as="geometry">
            <mxPoint x="1440" y="589" as="sourcePoint" />
            <mxPoint x="1250" y="586" as="targetPoint" />
          </mxGeometry>
        </mxCell>
        <mxCell id="d1E9yu58TmowH3p-16cs-90" value="FK2" style="edgeLabel;html=1;align=center;verticalAlign=middle;resizable=0;points=[];" vertex="1" connectable="0" parent="d1E9yu58TmowH3p-16cs-77">
          <mxGeometry x="-0.0889" y="-1" relative="1" as="geometry">
            <mxPoint as="offset" />
          </mxGeometry>
        </mxCell>
        <mxCell id="d1E9yu58TmowH3p-16cs-78" value="" style="endArrow=none;html=1;rounded=0;startArrow=block;startFill=1;endFill=0;" edge="1" parent="1" source="d1E9yu58TmowH3p-16cs-37" target="d1E9yu58TmowH3p-16cs-46">
          <mxGeometry width="50" height="50" relative="1" as="geometry">
            <mxPoint x="1450" y="599" as="sourcePoint" />
            <mxPoint x="1260" y="596" as="targetPoint" />
          </mxGeometry>
        </mxCell>
        <mxCell id="d1E9yu58TmowH3p-16cs-85" value="FK2" style="edgeLabel;html=1;align=center;verticalAlign=middle;resizable=0;points=[];" vertex="1" connectable="0" parent="d1E9yu58TmowH3p-16cs-78">
          <mxGeometry x="0.0325" y="-4" relative="1" as="geometry">
            <mxPoint as="offset" />
          </mxGeometry>
        </mxCell>
        <mxCell id="d1E9yu58TmowH3p-16cs-79" value="" style="endArrow=none;html=1;rounded=0;startArrow=block;startFill=1;endFill=0;" edge="1" parent="1" source="d1E9yu58TmowH3p-16cs-28" target="d1E9yu58TmowH3p-16cs-46">
          <mxGeometry width="50" height="50" relative="1" as="geometry">
            <mxPoint x="1460" y="609" as="sourcePoint" />
            <mxPoint x="1270" y="606" as="targetPoint" />
          </mxGeometry>
        </mxCell>
        <mxCell id="d1E9yu58TmowH3p-16cs-86" value="FK1" style="edgeLabel;html=1;align=center;verticalAlign=middle;resizable=0;points=[];" vertex="1" connectable="0" parent="d1E9yu58TmowH3p-16cs-79">
          <mxGeometry x="0.2" y="2" relative="1" as="geometry">
            <mxPoint as="offset" />
          </mxGeometry>
        </mxCell>
        <mxCell id="d1E9yu58TmowH3p-16cs-80" value="" style="endArrow=none;html=1;rounded=0;startArrow=block;startFill=1;endFill=0;" edge="1" parent="1" source="d1E9yu58TmowH3p-16cs-59" target="d1E9yu58TmowH3p-16cs-46">
          <mxGeometry width="50" height="50" relative="1" as="geometry">
            <mxPoint x="1470" y="619" as="sourcePoint" />
            <mxPoint x="1280" y="616" as="targetPoint" />
          </mxGeometry>
        </mxCell>
        <mxCell id="d1E9yu58TmowH3p-16cs-87" value="FK3" style="edgeLabel;html=1;align=center;verticalAlign=middle;resizable=0;points=[];" vertex="1" connectable="0" parent="d1E9yu58TmowH3p-16cs-80">
          <mxGeometry x="-0.0667" relative="1" as="geometry">
            <mxPoint as="offset" />
          </mxGeometry>
        </mxCell>
        <mxCell id="d1E9yu58TmowH3p-16cs-92" value="" style="endArrow=ERmany;html=1;rounded=0;startArrow=ERone;startFill=0;endFill=0;shape=link;sourcePerimeterSpacing=7;targetPerimeterSpacing=7;" edge="1" parent="1" source="cqDrvo92ieutZ3kiGdi4-63" target="CzzNRiv-S8m8q948nXzf-5">
          <mxGeometry width="50" height="50" relative="1" as="geometry">
            <mxPoint x="270" y="242" as="sourcePoint" />
            <mxPoint x="270" y="333" as="targetPoint" />
          </mxGeometry>
        </mxCell>
        <mxCell id="d1E9yu58TmowH3p-16cs-93" value="" style="endArrow=ERmany;html=1;rounded=0;startArrow=ERone;startFill=0;endFill=0;shape=link;sourcePerimeterSpacing=7;targetPerimeterSpacing=7;" edge="1" parent="1" source="CzzNRiv-S8m8q948nXzf-5" target="cqDrvo92ieutZ3kiGdi4-50">
          <mxGeometry width="50" height="50" relative="1" as="geometry">
            <mxPoint x="280" y="252" as="sourcePoint" />
            <mxPoint x="280" y="343" as="targetPoint" />
          </mxGeometry>
        </mxCell>
        <mxCell id="d1E9yu58TmowH3p-16cs-94" value="&lt;font style=&quot;font-size: 14px;&quot;&gt;По-умолчанию:&lt;br&gt;Связь: одна необязательна&lt;br&gt;Атрибуты: обязательны (M)&lt;/font&gt;" style="whiteSpace=wrap;html=1;glass=0;shadow=0;sketch=1;curveFitting=1;jiggle=2;" vertex="1" parent="1">
          <mxGeometry x="750" y="10" width="200" height="90" as="geometry" />
        </mxCell>
      </root>
    </mxGraphModel>
  </diagram>
</mxfile>
